<svg xmlns="http://www.w3.org/2000/svg" width="360" height="300" viewBox="0 0 360 300"><g transform="translate(90,8) scale(1.8)"><path d="M50 14 C76 30 76 70 50 86 C24 70 24 30 50 14 Z" fill="#157A4E"/><path d="M28 50 L43 50 L48 38 L52 64 L57 50 L72 50" fill="none" stroke="#FF6A3D" stroke-width="5" stroke-linecap="round" stroke-linejoin="round"/></g><path d="M39 175H180Q184 143 211.5 122.0Q239 101 280 101Q320 101 342.5 117.0Q365 133 365 158Q365 185 337.5 198.5Q310 212 250 228Q188 243 148.5 259.0Q109 275 80.5 308.0Q52 341 52 397Q52 443 78.5 481.0Q105 519 154.5 541.0Q204 563 271 563Q370 563 429.0 513.5Q488 464 494 380H360Q357 413 332.5 432.5Q308 452 267 452Q229 452 208.5 438.0Q188 424 188 399Q188 371 216.0 356.5Q244 342 303 327Q363 312 402.0 296.0Q441 280 469.5 246.5Q498 213 499 158Q499 110 472.5 72.0Q446 34 396.5 12.5Q347 -9 281 -9Q213 -9 159.0 15.5Q105 40 73.5 82.0Q42 124 39 175Z" transform="translate(52.21,232.00) scale(0.09200,-0.09200)" fill="#157A4E"/><path d="M286 563Q348 563 394.5 538.0Q441 513 469 475V554H610V0H469V81Q442 42 394.5 16.5Q347 -9 285 -9Q215 -9 157.5 27.0Q100 63 66.5 128.5Q33 194 33 279Q33 363 66.5 428.0Q100 493 157.5 528.0Q215 563 286 563ZM322 440Q283 440 250.0 421.0Q217 402 196.5 365.5Q176 329 176 279Q176 229 196.5 191.5Q217 154 250.5 134.0Q284 114 322 114Q361 114 395.0 133.5Q429 153 449.0 189.5Q469 226 469 277Q469 328 449.0 364.5Q429 401 395.0 420.5Q361 440 322 440Z" transform="translate(102.35,232.00) scale(0.09200,-0.09200)" fill="#157A4E"/><path d="M300 129 440 554H589L384 0H214L10 554H160Z" transform="translate(164.73,232.00) scale(0.09200,-0.09200)" fill="#157A4E"/><path d="M54 702Q54 737 78.5 760.5Q103 784 140 784Q177 784 201.5 760.5Q226 737 226 702Q226 667 201.5 643.5Q177 620 140 620Q103 620 78.5 643.5Q54 667 54 702ZM209 554V0H69V554Z" transform="translate(219.84,232.00) scale(0.09200,-0.09200)" fill="#FF6A3D"/><path d="M286 563Q348 563 394.5 538.0Q441 513 469 475V554H610V0H469V81Q442 42 394.5 16.5Q347 -9 285 -9Q215 -9 157.5 27.0Q100 63 66.5 128.5Q33 194 33 279Q33 363 66.5 428.0Q100 493 157.5 528.0Q215 563 286 563ZM322 440Q283 440 250.0 421.0Q217 402 196.5 365.5Q176 329 176 279Q176 229 196.5 191.5Q217 154 250.5 134.0Q284 114 322 114Q361 114 395.0 133.5Q429 153 449.0 189.5Q469 226 469 277Q469 328 449.0 364.5Q429 401 395.0 420.5Q361 440 322 440Z" transform="translate(245.41,232.00) scale(0.09200,-0.09200)" fill="#FF6A3D"/><path d="M579 325V0H466V308Q466 382 429.0 421.5Q392 461 328 461Q264 461 226.5 421.5Q189 382 189 308V0H75V551H189V488Q217 522 260.5 541.0Q304 560 353 560Q418 560 469.5 533.0Q521 506 550.0 453.0Q579 400 579 325Z" transform="translate(32.17,266.00) scale(0.01700,-0.01700)" fill="#6E746B"/><path d="M574 551V0H460V65Q433 31 389.5 11.5Q346 -8 297 -8Q232 -8 180.5 19.0Q129 46 99.5 99.0Q70 152 70 227V551H183V244Q183 170 220.0 130.5Q257 91 321 91Q385 91 422.5 130.5Q460 170 460 244V551Z" transform="translate(43.20,266.00) scale(0.01700,-0.01700)" fill="#6E746B"/><path d="M208 458V153Q208 122 222.5 108.5Q237 95 272 95H342V0H252Q175 0 134.0 36.0Q93 72 93 153V458H28V551H93V688H208V551H342V458Z" transform="translate(54.23,266.00) scale(0.01700,-0.01700)" fill="#6E746B"/><path d="M354 560V442H325Q258 442 223.5 408.0Q189 374 189 290V0H75V551H189V471Q214 513 255.5 536.5Q297 560 354 560Z" transform="translate(60.56,266.00) scale(0.01700,-0.01700)" fill="#6E746B"/><path d="M60 697Q60 728 81.0 749.0Q102 770 133 770Q163 770 184.0 749.0Q205 728 205 697Q205 666 184.0 645.0Q163 624 133 624Q102 624 81.0 645.0Q60 666 60 697ZM189 551V0H75V551Z" transform="translate(67.09,266.00) scale(0.01700,-0.01700)" fill="#6E746B"/><path d="M307 560Q407 560 472.5 512.5Q538 465 561 377H438Q423 418 390.0 441.0Q357 464 307 464Q237 464 195.5 414.5Q154 365 154 276Q154 187 195.5 137.0Q237 87 307 87Q406 87 438 174H561Q537 90 471.0 40.5Q405 -9 307 -9Q228 -9 167.0 26.5Q106 62 71.5 126.5Q37 191 37 276Q37 361 71.5 425.5Q106 490 167.0 525.0Q228 560 307 560Z" transform="translate(71.57,266.00) scale(0.01700,-0.01700)" fill="#6E746B"/><path d="M60 697Q60 728 81.0 749.0Q102 770 133 770Q163 770 184.0 749.0Q205 728 205 697Q205 666 184.0 645.0Q163 624 133 624Q102 624 81.0 645.0Q60 666 60 697ZM189 551V0H75V551Z" transform="translate(81.77,266.00) scale(0.01700,-0.01700)" fill="#6E746B"/><path d="M38 276Q38 360 75.0 425.0Q112 490 176.0 525.0Q240 560 319 560Q398 560 462.0 525.0Q526 490 563.0 425.0Q600 360 600 276Q600 192 562.0 127.0Q524 62 458.5 26.5Q393 -9 314 -9Q236 -9 173.0 26.5Q110 62 74.0 126.5Q38 191 38 276ZM483 276Q483 336 460.0 377.5Q437 419 399.0 440.0Q361 461 317 461Q273 461 235.5 440.0Q198 419 176.0 377.5Q154 336 154 276Q154 187 199.5 138.5Q245 90 314 90Q358 90 396.5 111.0Q435 132 459.0 174.0Q483 216 483 276ZM422 708 201 599V683L422 805Z" transform="translate(86.26,266.00) scale(0.01700,-0.01700)" fill="#6E746B"/><path d="M579 325V0H466V308Q466 382 429.0 421.5Q392 461 328 461Q264 461 226.5 421.5Q189 382 189 308V0H75V551H189V488Q217 522 260.5 541.0Q304 560 353 560Q418 560 469.5 533.0Q521 506 550.0 453.0Q579 400 579 325Z" transform="translate(97.11,266.00) scale(0.01700,-0.01700)" fill="#6E746B"/><path d="M571 551 233 -259H115L227 9L10 551H137L292 131L453 551Z" transform="translate(112.56,266.00) scale(0.01700,-0.01700)" fill="#6E746B"/><path d="M576 233H155Q160 167 204.0 127.0Q248 87 312 87Q404 87 442 164H565Q540 88 474.5 39.5Q409 -9 312 -9Q233 -9 170.5 26.5Q108 62 72.5 126.5Q37 191 37 276Q37 361 71.5 425.5Q106 490 168.5 525.0Q231 560 312 560Q390 560 451.0 526.0Q512 492 546.0 430.5Q580 369 580 289Q580 258 576 233ZM461 325Q460 388 416.0 426.0Q372 464 307 464Q248 464 206.0 426.5Q164 389 156 325Z" transform="translate(126.88,266.00) scale(0.01700,-0.01700)" fill="#6E746B"/><path d="M579 325V0H466V308Q466 382 429.0 421.5Q392 461 328 461Q264 461 226.5 421.5Q189 382 189 308V0H75V551H189V488Q217 522 260.5 541.0Q304 560 353 560Q418 560 469.5 533.0Q521 506 550.0 453.0Q579 400 579 325Z" transform="translate(137.36,266.00) scale(0.01700,-0.01700)" fill="#6E746B"/><path d="M208 458V153Q208 122 222.5 108.5Q237 95 272 95H342V0H252Q175 0 134.0 36.0Q93 72 93 153V458H28V551H93V688H208V551H342V458Z" transform="translate(148.40,266.00) scale(0.01700,-0.01700)" fill="#6E746B"/><path d="M354 560V442H325Q258 442 223.5 408.0Q189 374 189 290V0H75V551H189V471Q214 513 255.5 536.5Q297 560 354 560Z" transform="translate(154.72,266.00) scale(0.01700,-0.01700)" fill="#6E746B"/><path d="M576 233H155Q160 167 204.0 127.0Q248 87 312 87Q404 87 442 164H565Q540 88 474.5 39.5Q409 -9 312 -9Q233 -9 170.5 26.5Q108 62 72.5 126.5Q37 191 37 276Q37 361 71.5 425.5Q106 490 168.5 525.0Q231 560 312 560Q390 560 451.0 526.0Q512 492 546.0 430.5Q580 369 580 289Q580 258 576 233ZM461 325Q460 388 416.0 426.0Q372 464 307 464Q248 464 206.0 426.5Q164 389 156 325Z" transform="translate(161.25,266.00) scale(0.01700,-0.01700)" fill="#6E746B"/><path d="M579 325V0H466V308Q466 382 429.0 421.5Q392 461 328 461Q264 461 226.5 421.5Q189 382 189 308V0H75V551H189V488Q217 522 260.5 541.0Q304 560 353 560Q418 560 469.5 533.0Q521 506 550.0 453.0Q579 400 579 325Z" transform="translate(171.74,266.00) scale(0.01700,-0.01700)" fill="#6E746B"/><path d="M297 560Q362 560 410.5 534.5Q459 509 488 471V551H603V0H488V82Q459 43 409.0 17.0Q359 -9 295 -9Q224 -9 165.0 27.5Q106 64 71.5 129.5Q37 195 37 278Q37 361 71.5 425.0Q106 489 165.5 524.5Q225 560 297 560ZM321 461Q277 461 239.0 439.5Q201 418 177.5 376.5Q154 335 154 278Q154 221 177.5 178.0Q201 135 239.5 112.5Q278 90 321 90Q365 90 403.0 112.0Q441 134 464.5 176.5Q488 219 488 276Q488 333 464.5 375.0Q441 417 403.0 439.0Q365 461 321 461Z" transform="translate(182.77,266.00) scale(0.01700,-0.01700)" fill="#6E746B"/><path d="M969 325V0H856V308Q856 382 819.0 421.5Q782 461 718 461Q654 461 616.5 421.5Q579 382 579 308V0H466V308Q466 382 429.0 421.5Q392 461 328 461Q264 461 226.5 421.5Q189 382 189 308V0H75V551H189V488Q217 522 260.0 541.0Q303 560 352 560Q418 560 470.0 532.0Q522 504 550 451Q575 501 628.0 530.5Q681 560 742 560Q807 560 858.5 533.0Q910 506 939.5 453.0Q969 400 969 325Z" transform="translate(194.30,266.00) scale(0.01700,-0.01700)" fill="#6E746B"/><path d="M60 697Q60 728 81.0 749.0Q102 770 133 770Q163 770 184.0 749.0Q205 728 205 697Q205 666 184.0 645.0Q163 624 133 624Q102 624 81.0 645.0Q60 666 60 697ZM189 551V0H75V551Z" transform="translate(211.96,266.00) scale(0.01700,-0.01700)" fill="#6E746B"/><path d="M576 233H155Q160 167 204.0 127.0Q248 87 312 87Q404 87 442 164H565Q540 88 474.5 39.5Q409 -9 312 -9Q233 -9 170.5 26.5Q108 62 72.5 126.5Q37 191 37 276Q37 361 71.5 425.5Q106 490 168.5 525.0Q231 560 312 560Q390 560 451.0 526.0Q512 492 546.0 430.5Q580 369 580 289Q580 258 576 233ZM461 325Q460 388 416.0 426.0Q372 464 307 464Q248 464 206.0 426.5Q164 389 156 325Z" transform="translate(216.45,266.00) scale(0.01700,-0.01700)" fill="#6E746B"/><path d="M579 325V0H466V308Q466 382 429.0 421.5Q392 461 328 461Q264 461 226.5 421.5Q189 382 189 308V0H75V551H189V488Q217 522 260.5 541.0Q304 560 353 560Q418 560 469.5 533.0Q521 506 550.0 453.0Q579 400 579 325Z" transform="translate(226.94,266.00) scale(0.01700,-0.01700)" fill="#6E746B"/><path d="M208 458V153Q208 122 222.5 108.5Q237 95 272 95H342V0H252Q175 0 134.0 36.0Q93 72 93 153V458H28V551H93V688H208V551H342V458Z" transform="translate(237.97,266.00) scale(0.01700,-0.01700)" fill="#6E746B"/><path d="M38 276Q38 360 75.0 425.0Q112 490 176.0 525.0Q240 560 319 560Q398 560 462.0 525.0Q526 490 563.0 425.0Q600 360 600 276Q600 192 562.0 127.0Q524 62 458.5 26.5Q393 -9 314 -9Q236 -9 173.0 26.5Q110 62 74.0 126.5Q38 191 38 276ZM483 276Q483 336 460.0 377.5Q437 419 399.0 440.0Q361 461 317 461Q273 461 235.5 440.0Q198 419 176.0 377.5Q154 336 154 276Q154 187 199.5 138.5Q245 90 314 90Q358 90 396.5 111.0Q435 132 459.0 174.0Q483 216 483 276Z" transform="translate(244.29,266.00) scale(0.01700,-0.01700)" fill="#6E746B"/><path d="M576 233H155Q160 167 204.0 127.0Q248 87 312 87Q404 87 442 164H565Q540 88 474.5 39.5Q409 -9 312 -9Q233 -9 170.5 26.5Q108 62 72.5 126.5Q37 191 37 276Q37 361 71.5 425.5Q106 490 168.5 525.0Q231 560 312 560Q390 560 451.0 526.0Q512 492 546.0 430.5Q580 369 580 289Q580 258 576 233ZM461 325Q460 388 416.0 426.0Q372 464 307 464Q248 464 206.0 426.5Q164 389 156 325Z" transform="translate(259.56,266.00) scale(0.01700,-0.01700)" fill="#6E746B"/><path d="M579 325V0H466V308Q466 382 429.0 421.5Q392 461 328 461Q264 461 226.5 421.5Q189 382 189 308V0H75V551H189V488Q217 522 260.5 541.0Q304 560 353 560Q418 560 469.5 533.0Q521 506 550.0 453.0Q579 400 579 325Z" transform="translate(270.05,266.00) scale(0.01700,-0.01700)" fill="#6E746B"/><path d="M307 560Q407 560 472.5 512.5Q538 465 561 377H438Q423 418 390.0 441.0Q357 464 307 464Q237 464 195.5 414.5Q154 365 154 276Q154 187 195.5 137.0Q237 87 307 87Q406 87 438 174H561Q537 90 471.0 40.5Q405 -9 307 -9Q228 -9 167.0 26.5Q106 62 71.5 126.5Q37 191 37 276Q37 361 71.5 425.5Q106 490 167.0 525.0Q228 560 307 560Z" transform="translate(285.50,266.00) scale(0.01700,-0.01700)" fill="#6E746B"/><path d="M297 560Q362 560 410.5 534.5Q459 509 488 471V551H603V0H488V82Q459 43 409.0 17.0Q359 -9 295 -9Q224 -9 165.0 27.5Q106 64 71.5 129.5Q37 195 37 278Q37 361 71.5 425.0Q106 489 165.5 524.5Q225 560 297 560ZM321 461Q277 461 239.0 439.5Q201 418 177.5 376.5Q154 335 154 278Q154 221 177.5 178.0Q201 135 239.5 112.5Q278 90 321 90Q365 90 403.0 112.0Q441 134 464.5 176.5Q488 219 488 276Q488 333 464.5 375.0Q441 417 403.0 439.0Q365 461 321 461Z" transform="translate(295.70,266.00) scale(0.01700,-0.01700)" fill="#6E746B"/><path d="M45 169H163Q166 134 196.5 110.5Q227 87 273 87Q321 87 347.5 105.5Q374 124 374 153Q374 184 344.5 199.0Q315 214 251 232Q189 249 150.0 265.0Q111 281 82.5 314.0Q54 347 54 401Q54 445 80.0 481.5Q106 518 154.5 539.0Q203 560 266 560Q360 560 417.5 512.5Q475 465 479 383H365Q362 420 335.0 442.0Q308 464 262 464Q217 464 193.0 447.0Q169 430 169 402Q169 380 185.0 365.0Q201 350 224.0 341.5Q247 333 292 320Q352 304 390.5 287.5Q429 271 457.0 239.0Q485 207 486 154Q486 107 460.0 70.0Q434 33 386.5 12.0Q339 -9 275 -9Q210 -9 158.5 14.5Q107 38 77.0 78.5Q47 119 45 169Z" transform="translate(307.23,266.00) scale(0.01700,-0.01700)" fill="#6E746B"/><path d="M297 560Q362 560 410.5 534.5Q459 509 488 471V551H603V0H488V82Q459 43 409.0 17.0Q359 -9 295 -9Q224 -9 165.0 27.5Q106 64 71.5 129.5Q37 195 37 278Q37 361 71.5 425.0Q106 489 165.5 524.5Q225 560 297 560ZM321 461Q277 461 239.0 439.5Q201 418 177.5 376.5Q154 335 154 278Q154 221 177.5 178.0Q201 135 239.5 112.5Q278 90 321 90Q365 90 403.0 112.0Q441 134 464.5 176.5Q488 219 488 276Q488 333 464.5 375.0Q441 417 403.0 439.0Q365 461 321 461Z" transform="translate(316.31,266.00) scale(0.01700,-0.01700)" fill="#6E746B"/></svg>