<svg xmlns="http://www.w3.org/2000/svg" width="487" height="200" viewBox="0 0 487 200"><g transform="translate(20,30) scale(1.4)"><path d="M50 14 C76 30 76 70 50 86 C24 70 24 30 50 14 Z" fill="#157A4E"/><path d="M28 50 L43 50 L48 38 L52 64 L57 50 L72 50" fill="none" stroke="#FF6A3D" stroke-width="5" stroke-linecap="round" stroke-linejoin="round"/></g><path d="M39 175H180Q184 143 211.5 122.0Q239 101 280 101Q320 101 342.5 117.0Q365 133 365 158Q365 185 337.5 198.5Q310 212 250 228Q188 243 148.5 259.0Q109 275 80.5 308.0Q52 341 52 397Q52 443 78.5 481.0Q105 519 154.5 541.0Q204 563 271 563Q370 563 429.0 513.5Q488 464 494 380H360Q357 413 332.5 432.5Q308 452 267 452Q229 452 208.5 438.0Q188 424 188 399Q188 371 216.0 356.5Q244 342 303 327Q363 312 402.0 296.0Q441 280 469.5 246.5Q498 213 499 158Q499 110 472.5 72.0Q446 34 396.5 12.5Q347 -9 281 -9Q213 -9 159.0 15.5Q105 40 73.5 82.0Q42 124 39 175Z" transform="translate(150.00,132.00) scale(0.11200,-0.11200)" fill="#157A4E"/><path d="M286 563Q348 563 394.5 538.0Q441 513 469 475V554H610V0H469V81Q442 42 394.5 16.5Q347 -9 285 -9Q215 -9 157.5 27.0Q100 63 66.5 128.5Q33 194 33 279Q33 363 66.5 428.0Q100 493 157.5 528.0Q215 563 286 563ZM322 440Q283 440 250.0 421.0Q217 402 196.5 365.5Q176 329 176 279Q176 229 196.5 191.5Q217 154 250.5 134.0Q284 114 322 114Q361 114 395.0 133.5Q429 153 449.0 189.5Q469 226 469 277Q469 328 449.0 364.5Q429 401 395.0 420.5Q361 440 322 440Z" transform="translate(211.04,132.00) scale(0.11200,-0.11200)" fill="#157A4E"/><path d="M300 129 440 554H589L384 0H214L10 554H160Z" transform="translate(286.98,132.00) scale(0.11200,-0.11200)" fill="#157A4E"/><path d="M54 702Q54 737 78.5 760.5Q103 784 140 784Q177 784 201.5 760.5Q226 737 226 702Q226 667 201.5 643.5Q177 620 140 620Q103 620 78.5 643.5Q54 667 54 702ZM209 554V0H69V554Z" transform="translate(354.06,132.00) scale(0.11200,-0.11200)" fill="#FF6A3D"/><path d="M286 563Q348 563 394.5 538.0Q441 513 469 475V554H610V0H469V81Q442 42 394.5 16.5Q347 -9 285 -9Q215 -9 157.5 27.0Q100 63 66.5 128.5Q33 194 33 279Q33 363 66.5 428.0Q100 493 157.5 528.0Q215 563 286 563ZM322 440Q283 440 250.0 421.0Q217 402 196.5 365.5Q176 329 176 279Q176 229 196.5 191.5Q217 154 250.5 134.0Q284 114 322 114Q361 114 395.0 133.5Q429 153 449.0 189.5Q469 226 469 277Q469 328 449.0 364.5Q429 401 395.0 420.5Q361 440 322 440Z" transform="translate(385.20,132.00) scale(0.11200,-0.11200)" fill="#FF6A3D"/></svg>